<svg width="13" height="13" viewBox="0 0 13 13" fill="none" xmlns="http://www.w3.org/2000/svg">
<path d="M12.1672 0.500012C12.1672 0.223871 11.9434 1.29417e-05 11.6672 1.21409e-05L7.16722 1.25413e-05C6.89108 1.23727e-05 6.66722 0.22387 6.66722 0.500012C6.66722 0.776155 6.89108 1.00001 7.16722 1.00001L11.1672 1.00001L11.1672 5.00001C11.1672 5.27615 11.3911 5.50001 11.6672 5.50001C11.9434 5.50001 12.1672 5.27615 12.1672 5.00001L12.1672 0.500012ZM0.353516 11.8137L0.707069 12.1673L12.0208 0.853566L11.6672 0.500012L11.3137 0.146459L-3.77595e-05 11.4602L0.353516 11.8137Z" fill="#2D2D2D"/>
</svg>
